<svg width="512" height="438" viewBox="0 0 512 438" fill="none" xmlns="http://www.w3.org/2000/svg">
<path d="M244 42L255.1 54L267.1 42.02C300.6 9.36999 347 -5.49001 392.6 2.09999C461.5 13.58 512 73.2 512 143.1V148.9C512 190.4 494.8 230.1 464.4 258.4L283.7 427.1C276.2 434.1 266.3 438 256 438C245.7 438 235.8 434.1 228.3 427.1L47.59 258.4C17.23 230.1 0 190.4 0 148.9V143.1C0 73.2 50.52 13.58 119.4 2.09999C164.1 -5.49001 211.4 9.37 244 42C244 42.01 243.1 42 244 42ZM255.1 121.9L210.1 75.1C188.4 54.28 157.6 44.4 127.3 49.44C81.55 57.07 48 96.7 48 143.1V148.9C48 177.1 59.71 204.1 80.34 223.3L256 387.3L431.7 223.3C452.3 204.1 464 177.1 464 148.9V143.1C464 96.7 430.4 57.07 384.7 49.44C354.4 44.4 323.6 54.28 301.9 75.1L255.1 121.9Z" fill="#FF0000"/>
<path d="M25.5 104.5L108.5 32.5L214.008 51.3753L251 90.5L269.5 70L365 21L461 70L486.5 188.5L343.5 333.5L251 413.5L188 367L62 258L25.5 104.5Z" fill="#FF0000"/>
</svg>